<mxfile host="app.diagrams.net" modified="2024-07-10T09:15:01.784Z" agent="Mozilla/5.0 (Windows NT 10.0; Win64; x64; rv:127.0) Gecko/20100101 Firefox/127.0" etag="hE3worulWyiUv0NGD0QU" version="24.6.4" type="github">
  <diagram name="Page-1" id="WF9jFvfc2GYxqx0lAd5F">
    <mxGraphModel dx="1114" dy="566" grid="1" gridSize="10" guides="1" tooltips="1" connect="1" arrows="1" fold="1" page="1" pageScale="1" pageWidth="850" pageHeight="1100" math="0" shadow="0">
      <root>
        <mxCell id="0" />
        <mxCell id="1" parent="0" />
        <mxCell id="2moBEhId4R_HTWP96OOa-2" value="" style="rounded=0;whiteSpace=wrap;html=1;" vertex="1" parent="1">
          <mxGeometry x="70" y="110" width="200" height="360" as="geometry" />
        </mxCell>
        <mxCell id="2moBEhId4R_HTWP96OOa-5" value="AWS Mumbai Region" style="sketch=0;outlineConnect=0;gradientColor=none;html=1;whiteSpace=wrap;fontSize=12;fontStyle=0;shape=mxgraph.aws4.group;grIcon=mxgraph.aws4.group_aws_cloud;strokeColor=#AAB7B8;fillColor=none;verticalAlign=top;align=left;spacingLeft=30;fontColor=#AAB7B8;dashed=0;" vertex="1" parent="1">
          <mxGeometry x="70" y="110" width="200" height="360" as="geometry" />
        </mxCell>
        <mxCell id="2moBEhId4R_HTWP96OOa-7" value="VPC" style="sketch=0;outlineConnect=0;gradientColor=none;html=1;whiteSpace=wrap;fontSize=12;fontStyle=0;shape=mxgraph.aws4.group;grIcon=mxgraph.aws4.group_vpc;strokeColor=#879196;fillColor=none;verticalAlign=top;align=left;spacingLeft=30;fontColor=#879196;dashed=0;" vertex="1" parent="1">
          <mxGeometry x="110" y="150" width="130" height="290" as="geometry" />
        </mxCell>
        <mxCell id="2moBEhId4R_HTWP96OOa-9" value="" style="rounded=1;whiteSpace=wrap;html=1;" vertex="1" parent="1">
          <mxGeometry x="130" y="190" width="90" height="100" as="geometry" />
        </mxCell>
        <mxCell id="2moBEhId4R_HTWP96OOa-10" value="" style="rounded=1;whiteSpace=wrap;html=1;" vertex="1" parent="1">
          <mxGeometry x="130" y="310" width="90" height="93" as="geometry" />
        </mxCell>
        <mxCell id="2moBEhId4R_HTWP96OOa-17" value="" style="sketch=0;outlineConnect=0;gradientColor=none;html=1;whiteSpace=wrap;fontSize=12;fontStyle=0;shape=mxgraph.aws4.group;grIcon=mxgraph.aws4.group_aws_cloud;strokeColor=#AAB7B8;fillColor=none;verticalAlign=top;align=left;spacingLeft=30;fontColor=#AAB7B8;dashed=0;" vertex="1" parent="1">
          <mxGeometry x="350" y="110" width="470" height="360" as="geometry" />
        </mxCell>
        <mxCell id="2moBEhId4R_HTWP96OOa-18" value="VPC" style="sketch=0;outlineConnect=0;gradientColor=none;html=1;whiteSpace=wrap;fontSize=12;fontStyle=0;shape=mxgraph.aws4.group;grIcon=mxgraph.aws4.group_vpc;strokeColor=#879196;fillColor=none;verticalAlign=top;align=left;spacingLeft=30;fontColor=#879196;dashed=0;" vertex="1" parent="1">
          <mxGeometry x="390" y="150" width="180" height="290" as="geometry" />
        </mxCell>
        <mxCell id="2moBEhId4R_HTWP96OOa-19" value="" style="rounded=1;whiteSpace=wrap;html=1;" vertex="1" parent="1">
          <mxGeometry x="410" y="190" width="90" height="100" as="geometry" />
        </mxCell>
        <mxCell id="2moBEhId4R_HTWP96OOa-20" value="" style="rounded=1;whiteSpace=wrap;html=1;" vertex="1" parent="1">
          <mxGeometry x="410" y="310" width="90" height="93" as="geometry" />
        </mxCell>
        <mxCell id="2moBEhId4R_HTWP96OOa-23" value="VPC" style="sketch=0;outlineConnect=0;gradientColor=none;html=1;whiteSpace=wrap;fontSize=12;fontStyle=0;shape=mxgraph.aws4.group;grIcon=mxgraph.aws4.group_vpc;strokeColor=#879196;fillColor=none;verticalAlign=top;align=left;spacingLeft=30;fontColor=#879196;dashed=0;" vertex="1" parent="1">
          <mxGeometry x="600" y="150" width="190" height="290" as="geometry" />
        </mxCell>
        <mxCell id="2moBEhId4R_HTWP96OOa-24" value="" style="rounded=1;whiteSpace=wrap;html=1;" vertex="1" parent="1">
          <mxGeometry x="680" y="190" width="90" height="100" as="geometry" />
        </mxCell>
        <mxCell id="2moBEhId4R_HTWP96OOa-25" value="" style="rounded=1;whiteSpace=wrap;html=1;" vertex="1" parent="1">
          <mxGeometry x="680" y="310" width="90" height="93" as="geometry" />
        </mxCell>
      </root>
    </mxGraphModel>
  </diagram>
</mxfile>
